<svg width="160" height="160" viewBox="0 0 160 160" fill="none" xmlns="http://www.w3.org/2000/svg">
<g clip-path="url(#clip0_9_176)">
<mask id="path-1-outside-1_9_176" maskUnits="userSpaceOnUse" x="30.9283" y="38.7601" width="62.8718" height="52.4892" fill="black">
<rect fill="white" x="30.9283" y="38.7601" width="62.8718" height="52.4892"/>
<path d="M36.4115 40.6541L90.7734 84.9078L87.8687 88.4761L33.5067 44.2223L36.4115 40.6541Z"/>
</mask>
<path d="M36.4115 40.6541L90.7734 84.9078L87.8687 88.4761L33.5067 44.2223L36.4115 40.6541Z" fill="#710003"/>
<path d="M88.4469 83.0138L85.5421 86.5821L90.1952 90.37L93.1 86.8017L88.4469 83.0138ZM35.8333 46.1163L38.7381 42.548L34.0849 38.7601L31.1801 42.3284L35.8333 46.1163Z" fill="#9FAEB5" mask="url(#path-1-outside-1_9_176)"/>
<ellipse cx="63.5149" cy="62.8725" rx="35.0505" ry="7.54488" transform="rotate(39.1476 63.5149 62.8725)" fill="#710003"/>
<mask id="path-4-outside-2_9_176" maskUnits="userSpaceOnUse" x="3.22266" y="41.7732" width="88.1246" height="83.5101" fill="black">
<rect fill="white" x="3.22266" y="41.7732" width="88.1246" height="83.5101"/>
<path d="M33.9586 43.6672L88.3231 87.9229L60.0092 122.704L5.64474 78.4484L33.9586 43.6672Z"/>
</mask>
<path d="M33.9586 43.6672L88.3231 87.9229L60.0092 122.704L5.64474 78.4484L33.9586 43.6672Z" fill="#B11016"/>
<path d="M85.9965 86.029L57.6826 120.81L62.3357 124.598L90.6496 89.8169L85.9965 86.029ZM7.9713 80.3423L36.2852 45.5611L31.6321 41.7732L3.31817 76.5544L7.9713 80.3423Z" fill="#9FAEB5" mask="url(#path-4-outside-2_9_176)"/>
<ellipse cx="61.1325" cy="65.8054" rx="35.0517" ry="7.55763" transform="rotate(39.1476 61.1325 65.8054)" fill="#B11016"/>
<line x1="30.911" y1="82.9348" x2="59.4158" y2="48.4952" stroke="#EAF4FF" stroke-width="3"/>
<line x1="50.7897" y1="99.3181" x2="79.5186" y2="65.9187" stroke="#EAF4FF" stroke-width="3"/>
<rect x="60.0792" y="127.674" width="76.4705" height="4.49031" transform="rotate(-140.852 60.0792 127.674)" fill="#9FAEB5"/>
<ellipse cx="33.0065" cy="100.366" rx="38.2352" ry="14.1599" transform="rotate(-140.852 33.0065 100.366)" fill="#9FAEB5"/>
<ellipse cx="30.6816" cy="103.337" rx="38.324" ry="13.9351" transform="rotate(39.1445 30.6816 103.337)" fill="#D9D9D9"/>
<ellipse cx="30.8655" cy="103.57" rx="35.0242" ry="11.9107" transform="rotate(39.1445 30.8655 103.57)" fill="#E6E6E6"/>
<path fill-rule="evenodd" clip-rule="evenodd" d="M88.053 88.2521C90.1416 88.2919 91.7259 87.7754 92.6507 86.6393C96.6448 81.7329 86.828 67.1281 70.7242 54.0187C54.6204 40.9093 38.3278 34.2594 34.3336 39.1659C33.4085 40.3024 33.2243 41.9592 33.6876 43.9973L36.1755 40.9411C36.1983 40.9087 36.2221 40.8771 36.2471 40.8464C36.2722 40.8157 36.2982 40.7859 36.3253 40.7571L36.3262 40.756L36.3263 40.7561C39.1531 37.7556 53.3248 45.0199 68.1928 57.1233C83.0608 69.2267 93.0491 81.63 90.6844 85.0067L90.6882 85.0097L88.2353 88.0228L88.2379 88.0249L88.053 88.2521Z" fill="#9FAEB5"/>
<mask id="path-14-outside-3_9_176" maskUnits="userSpaceOnUse" x="65.9653" y="40.9073" width="63.2194" height="52.0458" fill="black">
<rect fill="white" x="65.9653" y="40.9073" width="63.2194" height="52.0458"/>
<path d="M68.3066 87.1752L123.013 43.3475L125.889 46.9383L71.1835 90.7661L68.3066 87.1752Z"/>
</mask>
<path d="M68.3066 87.1752L123.013 43.3475L125.889 46.9383L71.1835 90.7661L68.3066 87.1752Z" fill="#710003"/>
<path d="M120.671 45.2232L123.548 48.8141L128.231 45.0626L125.354 41.4718L120.671 45.2232ZM73.5248 88.8904L70.6479 85.2995L65.9653 89.051L68.8422 92.6418L73.5248 88.8904Z" fill="#9FAEB5" mask="url(#path-14-outside-3_9_176)"/>
<ellipse cx="95.7328" cy="65.3566" rx="35.0505" ry="7.54488" transform="rotate(-38.7 95.7328 65.3566)" fill="#710003"/>
<mask id="path-17-outside-4_9_176" maskUnits="userSpaceOnUse" x="68.3947" y="43.9396" width="88.2291" height="83.2631" fill="black">
<rect fill="white" x="68.3947" y="43.9396" width="88.2291" height="83.2631"/>
<path d="M70.736 90.2075L125.444 46.3778L153.486 81.3791L98.7773 125.209L70.736 90.2075Z"/>
</mask>
<path d="M70.736 90.2075L125.444 46.3778L153.486 81.3791L98.7773 125.209L70.736 90.2075Z" fill="#B11016"/>
<path d="M123.103 48.2535L151.144 83.2548L155.827 79.5033L127.786 44.502L123.103 48.2535ZM101.119 123.333L73.0773 88.3318L68.3947 92.0832L96.436 127.085L101.119 123.333Z" fill="#9FAEB5" mask="url(#path-17-outside-4_9_176)"/>
<ellipse cx="98.0986" cy="68.303" rx="35.0517" ry="7.55763" transform="rotate(-38.7 98.0986 68.303)" fill="#B11016"/>
<line x1="108.482" y1="101.453" x2="80.8148" y2="66.3371" stroke="#EAF4FF" stroke-width="3"/>
<line x1="128.683" y1="85.4688" x2="102.08" y2="50.3527" stroke="#EAF4FF" stroke-width="3"/>
<rect x="158.359" y="82.3566" width="76.4705" height="4.49031" transform="rotate(141.3 158.359 82.3566)" fill="#9FAEB5"/>
<ellipse cx="125.964" cy="103.074" rx="38.2352" ry="14.1599" transform="rotate(141.3 125.964 103.074)" fill="#9FAEB5"/>
<ellipse cx="128.379" cy="105.972" rx="38.324" ry="13.9351" transform="rotate(-38.7031 128.379 105.972)" fill="#D9D9D9"/>
<ellipse cx="128.645" cy="105.842" rx="35.0242" ry="11.9107" transform="rotate(-38.7031 128.645 105.842)" fill="#E6E6E6"/>
<path fill-rule="evenodd" clip-rule="evenodd" d="M125.713 46.7154C126.194 44.6778 126.024 43.0171 125.107 41.8722C121.151 36.9347 104.806 43.4574 88.6 56.4411C72.3937 69.4248 62.4626 83.9528 66.4183 88.8903C67.3337 90.0329 68.9125 90.5618 70.9995 90.5389L70.8177 90.312L68.538 87.4664C68.511 87.4373 68.485 87.4072 68.4602 87.3761C68.4353 87.3451 68.4116 87.3132 68.389 87.2805L68.3885 87.2798L68.3886 87.2798C66.0501 83.8849 76.135 71.5598 91.0973 59.5728C106.06 47.5858 120.288 40.4324 123.091 43.4551L123.095 43.4521L125.524 46.4843L125.526 46.4823L125.713 46.7154Z" fill="#9FAEB5"/>
</g>
<defs>
<clipPath id="clip0_9_176">
<rect width="160" height="160" fill="white"/>
</clipPath>
</defs>
</svg>
